<?xml version="1.0" standalone="no"?>
<!DOCTYPE svg PUBLIC "-//W3C//DTD SVG 20010904//EN"
 "http://www.w3.org/TR/2001/REC-SVG-20010904/DTD/svg10.dtd">
<svg version="1.0" xmlns="http://www.w3.org/2000/svg"
 width="300.000000pt" height="300.000000pt" viewBox="0 0 300.000000 300.000000"
 preserveAspectRatio="xMidYMid meet">
<metadata>
Created by potrace 1.10, written by Peter Selinger 2001-2011
</metadata>
<g transform="translate(0.000000,300.000000) scale(0.100000,-0.100000)"
fill="#000000" stroke="none">
<path d="M0 1500 l0 -1500 1500 0 1500 0 0 1500 0 1500 -1500 0 -1500 0 0
-1500z m1260 1352 c0 -28 -4 -39 -15 -39 -11 0 -14 7 -9 21 3 12 8 29 10 39 8
28 14 20 14 -21z m38 3 c7 -14 12 -38 12 -54 0 -15 10 -38 22 -51 21 -23 22
-23 29 -2 6 15 15 20 36 18 25 -3 28 -8 31 -42 2 -21 7 -43 12 -49 16 -19 17
-160 1 -151 -5 3 -8 23 -7 43 1 21 -3 74 -10 118 -8 56 -13 69 -15 45 -1 -19
-3 -39 -4 -45 -2 -5 -3 -41 -4 -78 -1 -40 -5 -66 -11 -62 -5 3 -8 51 -6 110 2
61 -1 105 -6 105 -5 0 -8 -8 -7 -17 4 -47 -2 -185 -8 -179 -5 4 -11 42 -14 84
l-6 77 -1 -70 c-1 -40 -7 -76 -14 -83 -9 -9 -9 -12 3 -12 11 0 15 -17 16 -70
2 -46 -1 -69 -8 -65 -5 4 -16 1 -24 -5 -11 -9 -15 -9 -15 -1 0 6 -5 10 -12 9
-21 -5 -39 194 -18 207 5 3 7 -13 3 -44 -6 -55 3 -105 17 -96 6 4 10 -9 10
-29 0 -20 3 -36 8 -36 4 0 6 34 4 75 -3 45 0 75 6 75 9 0 6 170 -4 179 -2 2
-4 -28 -4 -67 0 -45 -4 -72 -11 -72 -7 0 -10 35 -8 109 2 60 0 113 -4 117 -4
4 -7 -33 -7 -82 0 -67 -4 -95 -16 -113 -14 -20 -16 -41 -11 -140 5 -94 4 -112
-6 -96 -15 26 -16 203 -1 229 9 15 9 23 -3 35 -10 10 -13 26 -9 49 4 25 2 32
-5 25 -12 -12 -14 -258 -3 -289 6 -15 4 -17 -6 -7 -16 15 -32 86 -31 136 1 25
-2 36 -9 32 -6 -4 -10 -12 -9 -18 1 -7 0 -21 -1 -32 -1 -15 -4 -13 -11 10 -4
16 -6 38 -4 50 3 11 7 42 10 68 6 56 11 67 31 67 8 0 14 9 14 21 0 11 4 18 10
14 5 -3 7 -12 3 -20 -3 -8 0 -15 6 -15 6 0 11 10 11 22 0 14 3 19 10 12 6 -6
5 -24 -2 -51 -12 -49 -1 -97 12 -53 5 14 8 60 9 103 1 80 10 95 29 52z m248
-127 c4 -7 3 -8 -4 -4 -9 5 -13 -22 -14 -101 -1 -59 -1 -124 0 -143 5 -105 0
-266 -8 -274 -7 -7 -10 0 -11 20 0 16 -3 57 -5 92 -3 40 -1 61 5 58 5 -4 13
-1 17 5 4 7 3 9 -4 6 -7 -5 -8 6 -5 32 3 24 1 41 -6 46 -9 5 -10 -3 -5 -30 5
-27 4 -36 -5 -31 -8 5 -11 -11 -12 -56 -1 -47 -3 -57 -9 -38 -13 39 -10 92 6
135 8 22 17 74 19 115 l4 75 -10 -69 c-5 -38 -11 -72 -14 -74 -10 -11 -15 7
-16 57 -1 42 3 55 22 74 17 15 25 35 27 61 4 53 13 68 28 44z m18 -180 c-4
-163 -7 -202 -13 -163 -7 37 -7 314 0 325 4 7 14 -118 13 -162z m-147 15 c-2
-21 -4 -6 -4 32 0 39 2 55 4 38 2 -18 2 -50 0 -70z m-121 -41 c-12 -11 -15 5
-8 44 l7 39 3 -39 c2 -21 1 -41 -2 -44z m86 -64 c2 -51 1 -158 -2 -238 -5
-136 -6 -141 -14 -85 -12 71 -13 269 -2 340 6 39 5 47 -4 35 -10 -13 -11 -12
-6 3 3 10 6 23 6 28 0 5 4 9 9 9 5 0 11 -42 13 -92z m58 15 c0 -32 -5 -28 -14
10 -4 19 -3 26 4 22 5 -3 10 -18 10 -32z m160 6 c0 -10 -4 -19 -10 -19 -5 0
-10 -4 -10 -10 0 -5 5 -9 12 -7 7 1 10 -17 9 -58 -3 -79 -11 -84 -13 -9 l-1
59 -7 -45 c-6 -39 -7 -33 -8 37 -2 70 0 81 13 77 8 -4 15 -15 15 -25z m-186
-48 c-4 -33 -10 -48 -15 -40 -4 7 -5 17 -2 22 3 5 5 27 5 49 -1 27 3 37 9 31
6 -6 7 -31 3 -62z m44 -17 c-14 -78 -24 -53 -13 34 4 35 10 51 16 45 7 -7 6
-35 -3 -79z m186 -86 c0 -56 -4 -92 -12 -100 -9 -9 -12 20 -11 133 1 123 3
137 12 99 5 -25 10 -84 11 -132z m39 -13 c-3 -24 -2 -26 5 -10 8 18 9 17 13
-10 7 -48 -2 -205 -12 -205 -5 0 -7 42 -6 94 1 52 0 93 -2 91 -1 -2 -7 -28
-11 -57 -6 -40 -8 -26 -5 57 2 61 5 112 5 115 5 16 17 -50 13 -75z m-251 -58
c-9 -18 -11 -10 -10 43 l0 65 11 -43 c7 -29 7 -49 -1 -65z m-18 -124 c-1 -21
-2 -56 -3 -78 -2 -26 -5 -34 -9 -23 -7 17 -7 94 -2 228 l3 65 6 -77 c4 -43 6
-94 5 -115z m60 140 c3 -25 4 -49 1 -51 -3 -3 -5 4 -5 16 0 11 -4 24 -10 27
-12 8 -13 55 -1 55 4 0 11 -21 15 -47z m73 -15 c-2 -13 -4 -3 -4 22 0 25 2 35
4 23 2 -13 2 -33 0 -45z m42 -177 c11 -69 -5 -235 -20 -225 -5 3 -9 -32 -10
-78 -2 -129 -17 -40 -19 107 0 66 -5 158 -9 205 -4 47 -5 91 -1 99 12 22 33
-147 28 -222 -2 -37 -1 -67 3 -67 14 0 22 179 9 210 -7 17 -10 39 -7 50 3 13
1 18 -6 13 -6 -4 -8 2 -4 18 4 13 7 49 8 79 2 46 3 41 10 -35 5 -49 13 -119
18 -154z m-2 167 c-2 -13 -4 -3 -4 22 0 25 2 35 4 23 2 -13 2 -33 0 -45z m32
-127 c1 -50 -2 -72 -9 -65 -10 10 -15 93 -10 174 l2 45 9 -40 c4 -22 8 -74 8
-114z m-110 39 c4 0 7 -37 8 -82 1 -58 -1 -74 -7 -53 -4 17 -8 54 -9 83 0 28
-5 52 -11 52 -12 0 -13 34 -2 70 6 20 8 16 10 -22 2 -27 6 -48 11 -48z m-50
-5 l3 60 9 -45 c16 -81 26 -170 19 -170 -4 0 -13 19 -20 43 -12 37 -14 39 -18
17 -2 -14 -8 -29 -13 -35 -5 -5 -9 32 -9 96 0 124 13 153 21 47 l5 -73 3 60z
m274 -9 c1 -45 -2 -80 -9 -84 -5 -4 -11 -27 -12 -51 0 -24 -5 -47 -9 -50 -4
-3 -10 -15 -11 -26 -9 -52 -14 -21 -7 50 4 44 11 82 16 83 5 2 9 42 9 90 0
110 21 99 23 -12z m-83 -31 c-6 -15 -6 -25 0 -25 4 0 11 8 14 18 3 9 4 5 2
-10 -2 -15 2 -29 8 -31 8 -3 8 -10 -1 -24 -15 -26 -18 -111 -6 -143 7 -16 7
-37 1 -60 -16 -56 -20 -50 -13 15 4 38 3 55 -3 47 -18 -27 -29 173 -15 274 l7
49 8 -43 c4 -24 3 -54 -2 -67z m116 64 c12 -63 5 -212 -15 -314 -10 -55 -22
-158 -26 -229 -3 -71 -8 -132 -10 -135 -4 -7 -8 -64 -26 -351 -6 -102 -16
-188 -21 -191 -7 -4 -6 -9 1 -13 6 -4 11 -32 10 -64 -1 -55 -1 -56 -11 -22
-16 58 -21 110 -10 110 6 0 9 30 9 73 -2 71 4 208 20 507 6 126 9 144 14 95 3
-38 6 -8 6 80 -1 108 -2 124 -7 70 -4 -38 -8 -59 -9 -45 -3 21 -4 22 -8 5 -3
-11 -9 -24 -14 -29 -12 -13 -12 46 0 76 5 13 15 44 21 71 7 26 16 47 21 47 4
0 10 -30 12 -67 l3 -68 2 76 c1 42 5 78 8 82 7 7 14 121 13 217 0 68 7 76 17
19z m-148 -307 l-3 -27 -14 24 c-7 13 -8 21 -2 17 7 -5 12 7 13 36 1 37 2 38
5 10 2 -18 3 -45 1 -60z m-97 -302 c-8 -54 -9 -53 -12 45 -4 138 0 257 9 275
11 22 14 -257 3 -320z m81 190 c-7 -62 -30 -166 -31 -142 -1 12 -6 22 -12 22
-7 0 -9 -10 -4 -27 4 -16 9 -61 12 -100 3 -42 9 -73 15 -73 7 0 8 18 4 52 -7
50 21 245 32 233 8 -8 23 -96 26 -150 12 -202 17 -439 11 -433 -5 5 -8 55 -7
112 1 58 -2 107 -6 110 -5 3 -7 -21 -4 -52 2 -31 1 -54 -3 -50 -10 10 -16 106
-6 112 9 6 3 214 -8 256 -7 26 -9 5 -8 -85 4 -223 -3 -411 -13 -395 -5 8 -10
76 -11 150 -1 101 -3 126 -10 100 -5 -19 -7 -84 -4 -145 3 -60 7 -163 10 -227
3 -65 10 -128 15 -140 7 -17 8 -10 5 27 l-4 50 9 -45 c14 -72 40 -247 39 -267
-1 -24 -27 46 -28 75 -1 12 -5 30 -10 40 -11 20 -35 128 -51 229 -7 42 -10
124 -7 193 4 91 2 119 -6 111 -9 -7 -12 23 -13 120 0 71 2 127 4 124 3 -2 8
-42 13 -87 l8 -83 -5 100 c-2 55 -6 125 -9 155 -4 39 -2 49 4 35 5 -11 10 -17
12 -12 1 4 2 10 3 15 2 4 6 43 10 87 5 44 11 85 15 90 8 15 18 -44 13 -85z
m38 40 c0 -27 -4 -50 -10 -50 -11 0 -14 59 -4 84 10 27 14 18 14 -34z m11
-107 c-9 -16 -10 -14 -11 12 0 21 3 26 11 18 8 -8 8 -16 0 -30z m21 -163 c-6
-15 -8 12 -6 76 2 54 4 101 6 104 7 15 7 -160 0 -180z m-172 30 c0 -87 -4
-140 -10 -140 -6 0 -10 46 -10 118 0 106 6 162 16 162 2 0 4 -63 4 -140z m-73
-52 c1 -90 -1 -134 -6 -118 -5 14 -9 71 -10 128 -1 69 -5 102 -12 102 -13 0
-5 -170 11 -245 10 -48 -2 -146 -13 -105 -4 14 -6 50 -5 80 1 30 -2 110 -6
177 -5 66 -6 129 -2 139 6 16 8 16 23 1 14 -13 17 -43 20 -159z m229 135 c-10
-10 -19 5 -10 18 6 11 8 11 12 0 2 -7 1 -15 -2 -18z m-194 -210 c-7 -11 -12
14 -17 80 -5 74 -4 99 7 110 11 12 13 0 16 -79 1 -52 -1 -102 -6 -111z m-83
-85 c0 -102 -3 -134 -10 -113 -17 56 -11 255 7 255 2 0 4 -64 3 -142z m147 30
c-3 -79 -22 -178 -26 -133 -10 123 -10 165 -1 165 6 0 11 8 11 18 0 16 8 32
16 32 1 0 1 -37 0 -82z m141 50 c-3 -8 -6 -5 -6 6 -1 11 2 17 5 13 3 -3 4 -12
1 -19z m-185 -140 c2 -37 0 -64 -4 -60 -6 7 -13 146 -8 172 4 19 9 -25 12
-112z m-23 -5 c0 -35 -3 -63 -8 -63 -4 0 -13 -28 -18 -62 -8 -55 -10 -60 -17
-35 -5 15 -5 62 -1 105 l8 77 13 -35 c11 -32 12 -28 9 50 -3 58 -2 75 4 55 5
-16 9 -58 10 -92z m-109 8 c0 -36 5 -84 11 -106 5 -22 12 -79 14 -127 3 -67 1
-89 -11 -98 -12 -11 -14 -3 -16 51 -2 84 -2 99 8 128 5 16 4 22 -4 18 -7 -5
-12 22 -16 80 -4 49 -8 104 -11 123 -4 33 -3 34 10 16 10 -13 15 -44 15 -85z
m-40 10 c0 -37 5 -72 11 -78 13 -13 8 -92 -6 -96 -6 -1 -12 43 -15 110 -3 62
-8 115 -11 118 -3 3 -5 -61 -3 -142 1 -91 -1 -139 -7 -125 -19 49 -22 11 -8
-103 16 -133 17 -155 8 -149 -5 3 -9 17 -10 32 0 15 -4 36 -9 47 -11 23 -3
-42 10 -90 5 -16 11 -73 14 -125 3 -52 8 -111 11 -130 12 -76 26 -227 25 -258
0 -18 3 -38 7 -45 11 -17 14 -34 20 -106 4 -46 2 -62 -6 -57 -6 4 -11 32 -11
62 0 30 -4 54 -10 54 -5 0 -10 16 -10 36 0 19 -4 44 -10 54 -5 10 -14 74 -20
142 -11 134 -15 179 -30 308 -13 112 -13 203 0 195 6 -3 10 -1 10 4 0 6 -4 11
-10 11 -13 0 -13 173 1 225 6 22 11 65 12 96 2 54 20 94 38 83 5 -3 9 -36 9
-73z m321 -122 c2 -18 5 -38 8 -44 9 -17 10 -35 1 -30 -5 3 -7 -45 -4 -107 3
-82 2 -107 -6 -90 -5 13 -10 45 -11 70 0 26 -6 60 -11 75 -7 17 -7 32 -2 35
10 8 10 10 13 84 1 57 9 62 12 7z m-231 -10 c0 -10 -4 -19 -10 -19 -5 0 -10
12 -10 26 0 14 4 23 10 19 6 -3 10 -15 10 -26z m8 -99 c0 -19 -4 -46 -8 -60
-5 -17 -8 0 -8 55 0 53 2 73 8 60 5 -11 8 -36 8 -55z m316 -178 c3 -29 2 -50
-3 -48 -14 9 -7 -28 8 -40 7 -6 15 -32 17 -59 2 -27 8 -51 12 -54 10 -6 16
-35 32 -146 5 -38 13 -88 16 -110 6 -43 -5 -210 -13 -201 -3 3 -7 45 -9 93 -4
123 -27 299 -35 277 -3 -11 -10 29 -14 89 -4 59 -11 107 -15 107 -4 0 -5 -42
-3 -92 3 -51 7 -136 10 -188 2 -52 9 -99 15 -105 7 -7 9 3 6 33 -2 23 0 42 4
42 5 0 8 -13 8 -29 0 -16 2 -41 4 -57 2 -16 1 -23 -1 -17 -2 7 -9 13 -14 13
-6 0 -7 -5 -4 -11 9 -13 -3 -61 -14 -55 -4 3 -8 36 -9 73 -1 37 -5 79 -8 93
-12 47 -33 195 -32 225 0 26 2 25 14 -15 l13 -45 -6 55 c-4 30 -7 92 -7 137
-1 45 -4 84 -8 88 -3 4 -2 21 3 38 5 18 10 59 11 92 1 52 3 47 9 -35 5 -52 10
-119 13 -148z m-389 133 c9 -93 11 -154 5 -158 -3 -1 -2 -24 1 -52 l6 -50 1
49 c1 27 5 46 9 42 4 -4 11 -150 15 -324 5 -174 9 -326 10 -337 2 -27 -7 -94
-14 -100 -2 -3 -6 23 -7 56 -1 34 -6 83 -11 108 -4 25 -8 149 -7 274 1 126 -1
218 -4 205 -4 -17 -7 -11 -12 26 -4 27 -8 65 -8 85 l-1 36 -9 -30 c-7 -24 -7
-20 -4 18 3 26 1 46 -3 43 -4 -2 -5 33 -2 77 l4 82 6 -65 7 -65 1 79 c1 44 4
77 6 75 2 -2 7 -35 11 -74z m-46 -2 c0 -31 -2 -34 -9 -18 -12 28 -12 55 0 55
6 0 10 -17 9 -37z m381 -279 c5 -66 12 -146 15 -179 l5 -60 -14 54 c-8 30 -17
93 -20 140 -4 47 -9 109 -12 136 -5 38 -3 47 6 39 6 -6 15 -64 20 -130z m-350
-101 c0 -132 -7 -165 -11 -53 -3 90 0 180 6 180 3 0 5 -57 5 -127z m-295 -118
c-9 -30 -18 -55 -20 -55 -1 0 -3 39 -4 86 0 63 4 90 14 101 8 8 16 29 17 46 1
18 4 -3 5 -45 3 -51 -2 -96 -12 -133z m40 41 c-4 -61 -9 -113 -11 -115 -2 -2
-4 56 -4 130 1 101 3 129 11 115 8 -12 9 -56 4 -130z m47 -42 c-5 -72 -22 -69
-23 4 0 31 -2 80 -4 107 l-4 50 17 -54 c10 -32 16 -75 14 -107z m-124 39 c-1
-78 -2 -82 -8 -38 l-7 50 -1 -64 c-2 -52 1 -62 13 -57 13 5 15 -10 14 -102 -1
-59 -3 -99 -6 -90 -3 11 -11 15 -21 12 -10 -4 -13 -2 -7 3 10 8 7 79 -11 240
-5 50 -3 65 10 78 9 9 16 25 16 36 0 10 2 19 5 19 3 0 4 -39 3 -87z m-48 -19
c0 -34 -4 -53 -10 -49 -5 3 -10 0 -10 -7 0 -9 -3 -9 -10 2 -8 13 -10 13 -10
-2 0 -9 5 -18 12 -20 6 -2 14 -24 18 -49 l7 -44 2 49 c2 78 12 47 16 -51 3
-57 2 -78 -4 -58 -4 17 -19 55 -33 85 -39 85 -39 89 -18 110 10 10 22 35 26
54 9 51 14 44 14 -20z m210 -26 c0 -38 -4 -58 -9 -52 -19 19 -15 114 5 114 2
0 4 -28 4 -62z m32 11 c6 -4 18 -31 29 -60 16 -48 16 -57 3 -76 -16 -26 -39
-31 -30 -7 3 9 6 23 7 32 0 14 2 13 9 -3 8 -19 9 -19 9 2 1 12 -3 25 -9 28 -5
3 -10 22 -10 41 0 19 -3 34 -7 34 -5 0 -8 -44 -8 -98 0 -72 -3 -99 -12 -99
-16 0 -18 123 -3 132 5 3 8 33 5 68 -2 34 -1 51 2 37 3 -14 10 -28 15 -31z
m565 -11 c-3 -7 -5 -2 -5 12 0 14 2 19 5 13 2 -7 2 -19 0 -25z m-707 -146 c0
-87 -4 -134 -12 -145 -11 -14 -13 7 -13 115 0 117 5 158 21 158 2 0 4 -58 4
-128z m640 43 c0 -79 -14 -100 -26 -39 -4 24 -3 39 6 44 6 4 11 10 11 14 -3
20 0 56 4 56 3 0 5 -34 5 -75z m30 6 c0 -94 -14 -98 -17 -5 -1 43 2 74 7 74 6
0 10 -31 10 -69z m-617 -63 c-2 -5 1 -8 6 -8 7 0 11 23 11 56 0 40 3 55 13 52
8 -3 13 -30 14 -79 1 -50 -1 -67 -7 -54 -9 20 -9 20 -9 0 -1 -15 -3 -17 -10
-6 -7 10 -10 10 -16 1 -4 -7 -2 -15 4 -19 7 -5 5 -14 -9 -29 -12 -12 -23 -22
-25 -22 -3 0 -4 44 -3 98 l2 97 3 -88 c2 -48 7 -86 12 -83 4 3 6 47 5 98 -2
74 -1 83 6 43 4 -27 5 -53 3 -57z m552 3 c6 -20 4 -23 -9 -18 -16 6 -16 -10 0
-60 7 -24 -13 -13 -24 12 -16 34 -15 54 2 61 8 3 11 15 9 32 -5 31 10 13 22
-27z m117 -130 c-5 -3 -12 -15 -15 -26 -3 -13 -5 -8 -7 15 -4 60 1 104 13 119
10 11 13 2 15 -44 2 -32 -1 -61 -6 -64z m-42 38 c0 -82 -15 -86 -19 -4 -2 50
3 75 15 75 2 0 4 -32 4 -71z m-31 1 l-1 -55 -12 35 c-9 24 -15 30 -19 20 -3
-8 -6 2 -6 22 -1 31 2 37 19 35 18 -1 20 -8 19 -57z m-409 30 c13 21 23 -71
11 -100 -9 -24 -10 -24 -10 -3 -1 12 -5 25 -11 28 -5 3 -9 27 -9 53 1 26 4 38
6 28 4 -14 7 -16 13 -6z m-31 -77 c1 -29 -25 -30 -32 -2 -3 12 0 32 6 47 l12
25 6 -24 c4 -13 7 -34 8 -46z m-49 -19 c0 -19 -4 -33 -9 -29 -5 3 -12 1 -15
-4 -3 -5 1 -11 8 -14 8 -3 14 -15 13 -26 -2 -26 -1 -26 -20 3 -15 22 -15 28 0
65 9 23 18 41 20 41 1 0 3 -16 3 -36z m120 -35 c0 -38 -16 -69 -35 -69 -9 0
-24 14 -34 31 l-19 31 -10 -29 c-10 -28 -10 -27 -11 12 -1 37 1 40 29 42 25 2
31 -2 36 -25 10 -47 12 -48 19 -4 9 49 25 56 25 11z"/>
<path d="M1184 2703 c2 -32 7 -66 11 -76 4 -9 5 -26 2 -37 -3 -11 -1 -20 4
-20 5 0 8 34 6 75 -1 41 -6 75 -10 75 -5 0 -5 9 -2 20 4 12 2 20 -4 20 -7 0
-10 -20 -7 -57z"/>
<path d="M1321 2508 c-1 -27 3 -48 7 -48 4 0 6 17 4 38 -5 58 -10 62 -11 10z"/>
<path d="M1643 2020 c0 -36 2 -50 4 -32 2 17 2 47 0 65 -2 17 -4 3 -4 -33z"/>
<path d="M1390 1651 c0 -25 6 -27 13 -6 4 8 2 17 -3 20 -6 4 -10 -3 -10 -14z"/>
<path d="M1263 1175 c0 -27 2 -38 4 -22 2 15 2 37 0 50 -2 12 -4 0 -4 -28z"/>
<path d="M1313 1175 c0 -22 2 -30 4 -17 2 12 2 30 0 40 -3 9 -5 -1 -4 -23z"/>
<path d="M983 405 c0 -22 2 -30 4 -17 2 12 2 30 0 40 -3 9 -5 -1 -4 -23z"/>
<path d="M1262 150 c0 -14 2 -19 5 -12 2 6 2 18 0 25 -3 6 -5 1 -5 -13z"/>
</g>
</svg>
